<?xml version="1.0" encoding="UTF-8" standalone="no"?>
<!-- Created with Inkscape (http://www.inkscape.org/) -->

<svg
   version="1.1"
   id="svg459"
   width="30.119339"
   height="30.118683"
   viewBox="0 0 30.119339 30.118683"
   xmlns="http://www.w3.org/2000/svg"
   xmlns:svg="http://www.w3.org/2000/svg">
  <defs
     id="defs463" />
  <g
     id="g467"
     transform="matrix(1.3333333,0,0,-1.3333333,-108.88066,361.62666)">
    <path
       d="m 92.9551,271.22 c -3.0672,0 -3.4524,-0.013 -4.6567,-0.068 -1.2023,-0.055 -2.023,-0.246 -2.7418,-0.525 -0.7425,-0.288 -1.3726,-0.674 -2.0003,-1.303 -0.6282,-0.627 -1.0141,-1.258 -1.3024,-2 -0.2793,-0.719 -0.4707,-1.539 -0.5254,-2.741 -0.0551,-1.206 -0.068,-1.59 -0.068,-4.657 0,-3.068 0.0129,-3.452 0.068,-4.657 0.0547,-1.202 0.2461,-2.023 0.5254,-2.742 0.2883,-0.742 0.6742,-1.372 1.3024,-2 0.6277,-0.628 1.2578,-1.014 2.0003,-1.303 0.7188,-0.279 1.5395,-0.47 2.7418,-0.525 1.2043,-0.054 1.5895,-0.068 4.6567,-0.068 3.0676,0 3.4515,0.014 4.6566,0.068 1.2024,0.055 2.0231,0.246 2.7413,0.525 0.743,0.289 1.373,0.675 2.001,1.303 0.627,0.628 1.014,1.258 1.303,2 0.279,0.719 0.469,1.54 0.525,2.742 0.054,1.205 0.068,1.589 0.068,4.657 0,3.067 -0.014,3.451 -0.068,4.657 -0.056,1.202 -0.246,2.022 -0.525,2.741 -0.289,0.742 -0.676,1.373 -1.303,2 -0.628,0.629 -1.258,1.015 -2.001,1.303 -0.7182,0.279 -1.5389,0.47 -2.7413,0.525 -1.2051,0.055 -1.589,0.068 -4.6566,0.068 m 0,-2.035 c 3.0156,0 3.373,-0.011 4.564,-0.066 1.1008,-0.05 1.6993,-0.234 2.0969,-0.389 0.528,-0.205 0.904,-0.449 1.299,-0.844 0.395,-0.396 0.64,-0.772 0.845,-1.299 0.155,-0.398 0.338,-0.996 0.388,-2.097 0.055,-1.191 0.066,-1.549 0.066,-4.564 0,-3.016 -0.011,-3.373 -0.066,-4.564 -0.05,-1.102 -0.233,-1.699 -0.388,-2.097 -0.205,-0.528 -0.45,-0.904 -0.845,-1.299 -0.395,-0.395 -0.771,-0.64 -1.299,-0.845 -0.3976,-0.155 -0.9961,-0.339 -2.0969,-0.389 -1.191,-0.054 -1.548,-0.065 -4.564,-0.065 -3.016,0 -3.3731,0.011 -4.5641,0.065 -1.1012,0.05 -1.6992,0.234 -2.0972,0.389 -0.527,0.205 -0.9032,0.45 -1.2989,0.845 -0.3949,0.395 -0.6394,0.771 -0.8445,1.299 -0.1547,0.398 -0.3391,0.995 -0.3891,2.097 -0.0543,1.191 -0.0656,1.548 -0.0656,4.564 0,3.015 0.0113,3.373 0.0656,4.564 0.05,1.101 0.2344,1.699 0.3891,2.097 0.2051,0.527 0.4496,0.903 0.8445,1.299 0.3957,0.395 0.7719,0.639 1.2989,0.844 0.398,0.155 0.996,0.339 2.0972,0.389 1.191,0.055 1.5485,0.066 4.5641,0.066"
       style="fill:#1b191c;fill-opacity:1;fill-rule:nonzero;stroke:none;stroke-width:0.1"
       id="path515" />
    <path
       d="m 92.9551,256.161 c -2.0797,0 -3.7649,1.686 -3.7649,3.765 0,2.079 1.6852,3.764 3.7649,3.764 2.0793,0 3.7644,-1.685 3.7644,-3.764 0,-2.079 -1.6851,-3.765 -3.7644,-3.765 m 0,9.565 c -3.2031,0 -5.7996,-2.597 -5.7996,-5.8 0,-3.203 2.5965,-5.8 5.7996,-5.8 3.2031,0 5.8,2.597 5.8,5.8 0,3.203 -2.5969,5.8 -5.8,5.8"
       style="fill:#1b191c;fill-opacity:1;fill-rule:nonzero;stroke:none;stroke-width:0.1"
       id="path517" />
    <path
       d="m 100.339,265.955 c 0,-0.748 -0.6066,-1.356 -1.355,-1.356 -0.7485,0 -1.3555,0.608 -1.3555,1.356 0,0.748 0.607,1.355 1.3555,1.355 0.7484,0 1.355,-0.607 1.355,-1.355"
       style="fill:#1b191c;fill-opacity:1;fill-rule:nonzero;stroke:none;stroke-width:0.1"
       id="path519" />
  </g>
</svg>
