<?xml version="1.0" encoding="UTF-8" standalone="no"?>
<!-- Created with Inkscape (http://www.inkscape.org/) -->

<svg
   width="38.602997"
   height="17.361343"
   viewBox="0 0 38.602997 17.361343"
   xmlns="http://www.w3.org/2000/svg">
  <g
     transform="matrix(1.3333333,0,0,-1.3333333,-418.72931,458.41733)">
    <g
       id="g1542">
      <path
         d="m 314.591,336.936 c -0.011,0.071 -0.062,0.121 -0.125,0.121 -0.064,0 -0.116,-0.051 -0.125,-0.121 l -0.294,-2.693 0.294,-2.633 c 0.009,-0.07 0.061,-0.121 0.125,-0.121 0.063,0 0.114,0.05 0.125,0.121 l 0.335,2.633 -0.335,2.693"
          />
      <path
         d="m 319.235,339.419 c -0.121,0 -0.221,-0.099 -0.227,-0.224 l -0.235,-4.954 0.235,-3.201 c 0.007,-0.125 0.106,-0.224 0.227,-0.224 0.12,0 0.22,0.099 0.227,0.225 v -10e-4 l 0.266,3.201 -0.266,4.954 c -0.007,0.125 -0.107,0.224 -0.227,0.224"
          />
      <path
         d="m 316.831,337.698 c -0.093,0 -0.169,-0.074 -0.176,-0.174 l -0.264,-3.282 0.264,-3.175 c 0.007,-0.099 0.083,-0.173 0.176,-0.173 0.092,0 0.168,0.074 0.176,0.173 l 0.301,3.175 -0.301,3.283 c -0.008,0.099 -0.084,0.173 -0.176,0.173"
          />
      <path
         d="m 321.678,330.816 c 0.149,0 0.271,0.121 0.277,0.276 l 0.231,3.147 -0.23,6.595 c -0.007,0.155 -0.128,0.276 -0.278,0.276 -0.152,0 -0.274,-0.121 -0.279,-0.276 l -0.204,-6.594 0.204,-3.149 c 0.005,-0.154 0.127,-0.275 0.279,-0.275"
          />
      <path
         d="m 326.679,330.801 c 0.206,0 0.376,0.17 0.38,0.379 v -0.002 0.002 l 0.161,3.057 -0.161,7.617 c -0.004,0.209 -0.174,0.379 -0.38,0.379 -0.207,0 -0.378,-0.17 -0.381,-0.379 l -0.144,-7.614 c 0,-0.005 0.144,-3.062 0.144,-3.062 0.003,-0.207 0.174,-0.377 0.381,-0.377"
         />
      <path
         d="m 324.159,330.813 c 0.18,0 0.324,0.145 0.329,0.328 v -0.002 l 0.196,3.1 -0.197,6.642 c -0.005,0.184 -0.149,0.328 -0.329,0.328 -0.18,0 -0.325,-0.144 -0.329,-0.328 l -0.174,-6.643 0.174,-3.099 c 0.004,-0.181 0.149,-0.326 0.33,-0.326"
         />
      <path
         d="m 339.312,338.169 c -0.506,0 -0.988,-0.103 -1.427,-0.287 -0.293,3.324 -3.08,5.931 -6.48,5.931 -0.832,0 -1.642,-0.164 -2.359,-0.441 -0.278,-0.107 -0.353,-0.218 -0.355,-0.434 v -11.703 c 0.003,-0.226 0.178,-0.414 0.398,-0.436 0.01,-10e-4 10.156,-0.007 10.222,-0.007 2.037,0 3.688,1.652 3.688,3.688 0,2.037 -1.651,3.689 -3.687,3.689"
          />
    </g>
  </g>
</svg>
