<?xml version="1.0" encoding="UTF-8" standalone="no"?>
<!-- Created with Inkscape (http://www.inkscape.org/) -->

<svg
   version="1.1"
   id="svg459"
   width="29.268005"
   height="23.783997"
   viewBox="0 0 29.268006 23.783997"
   sodipodi:docname="2101282.eps"
   inkscape:export-filename="soundcloud.svg"
   inkscape:export-xdpi="100"
   inkscape:export-ydpi="100"
   xmlns:inkscape="http://www.inkscape.org/namespaces/inkscape"
   xmlns:sodipodi="http://sodipodi.sourceforge.net/DTD/sodipodi-0.dtd"
   xmlns="http://www.w3.org/2000/svg"
   xmlns:svg="http://www.w3.org/2000/svg">
  <defs
     id="defs463" />
  <sodipodi:namedview
     id="namedview461"
     pagecolor="#ffffff"
     bordercolor="#000000"
     borderopacity="0.25"
     inkscape:showpageshadow="2"
     inkscape:pageopacity="0.0"
     inkscape:pagecheckerboard="0"
     inkscape:deskcolor="#d1d1d1"
     showgrid="false" />
  <g
     id="g467"
     inkscape:groupmode="layer"
     inkscape:label="Page 1"
     transform="matrix(1.3333333,0,0,-1.3333333,-318.69998,357.20799)">
    <path
       d="m 239.025,252.091 c 1.993,-1.278 4.36,-2.023 6.903,-2.023 8.361,0 13.085,7.061 12.801,13.396 0.878,0.634 1.642,1.427 2.247,2.331 -0.809,-0.358 -1.677,-0.6 -2.587,-0.709 0.929,0.557 1.643,1.439 1.979,2.492 -0.87,-0.516 -1.834,-0.891 -2.858,-1.094 -0.822,0.876 -1.992,1.422 -3.288,1.422 -2.907,0 -5.043,-2.712 -4.387,-5.529 -3.743,0.187 -7.061,1.98 -9.282,4.706 -1.179,-2.025 -0.612,-4.673 1.394,-6.014 -0.739,0.024 -1.434,0.227 -2.041,0.564 -0.048,-2.087 1.447,-4.038 3.613,-4.473 -0.634,-0.173 -1.329,-0.211 -2.033,-0.077 0.572,-1.79 2.235,-3.09 4.206,-3.127 -1.893,-1.484 -4.278,-2.147 -6.667,-1.865"
       style="fill:#1b191c;fill-opacity:1;fill-rule:nonzero;stroke:none;stroke-width:0.1"
       id="path495" />
  </g>
</svg>
